<?xml version="1.0" encoding="utf-8"?>
<!-- Generator: Adobe Illustrator 24.0.2, SVG Export Plug-In . SVG Version: 6.00 Build 0)  -->
<svg version="1.1" id="图层_1" xmlns="http://www.w3.org/2000/svg" xmlns:xlink="http://www.w3.org/1999/xlink" x="0px" y="0px"
	 viewBox="0 0 412 412" style="enable-background:new 0 0 412 412;" xml:space="preserve">
<style type="text/css">
	.st0{clip-path:url(#SVGID_2_);}
	.st1{fill:#FEFEFE;}
	.st2{fill:#2E2920;}
	.st3{fill:#FEAF02;}
</style>
<g>
	<defs>
		<circle id="SVGID_1_" cx="206" cy="206" r="206"/>
	</defs>
	<clipPath id="SVGID_2_">
		<use xlink:href="#SVGID_1_"  style="overflow:visible;"/>
	</clipPath>
	<g class="st0">
		<g>
			<g>
				<path class="st1" d="M412.3,206.5c0,67.8,0,135.6,0.1,203.4c0,2-0.4,2.4-2.4,2.4c-135.8-0.1-271.6-0.1-407.5,0
					c-2,0-2.4-0.4-2.4-2.4C0.1,274.1,0.1,138.3,0,2.4C0,0.4,0.4,0,2.4,0c135.8,0.1,271.6,0.1,407.5,0c2,0,2.4,0.4,2.4,2.4
					C412.3,70.5,412.3,138.5,412.3,206.5z M209.9,144.8c1,0.8,2,1,3.1,0.5l-0.1,0c-1,0.4-1.8,0.7-2.4,1.8c-1.2,2.2-1.5,4.8-1.8,7
					c-0.9,6.5-2.2,13.1-1.5,19.8c0.3,2.8,0.8,5.5,2.1,7.9c3.3,6.1,7.1,11.7,12.2,16.5c6.4,6,13.8,9.2,22.7,9.2
					c5.2,0,10.2-0.7,15.2-2.1c9-2.5,17.3-6.7,24.9-12c4-2.8,7.3-6.4,10.7-9.8c4.5-4.5,8.4-9.4,10.4-15.6c0.5,0.4,1.1,0.9,1.6,1.3
					c12.6,10.4,19.7,23.4,19.8,40c0.1,11.8-2.6,23-6.5,34c-3.2,9.1-7.4,17.6-12.4,25.7c-5,8.1-10.8,15.7-17.7,22.3
					c-4.5,4.3-9.6,7.9-15.7,10.1c-8.4,3.1-17.1,4.4-25.8,5.5c-18.6,2.3-37.2,3.5-55.9,2.1c-14.3-1-28.3-3.5-41.9-8.5
					c-16.6-6-32-14.1-44.8-26.5c-11.2-10.8-19.7-23.1-22-39c-2.4-16.5,1.1-31.7,10.5-45.3c6.5-9.3,13.8-17.9,20.8-26.8
					c1.9-2.4,3.5-5,4.9-7.7c0.2-0.4,0.5-0.9,0.1-1.4c-0.5-0.5-0.8-0.1-1.2,0.3c-0.3,0.3-0.4,0.2-0.4-0.3c-0.1-0.6-0.1-1.5-0.9-1.2
					c-1.4,0.5-2.8-0.5-4.4,0.7c-3.2,2.4-6.7,4.5-9.7,7.3c-8.4,7.6-15.4,16.3-21.4,25.8c-3.3,5.2-5.7,10.9-7.6,16.8
					c-3.6,11.2-4.4,22.6-2.6,34.1c2.7,17.4,11.7,31.4,23.9,43.7c12.2,12.3,26.8,21.1,42.5,27.9c18.1,7.8,37.1,11.7,56.7,12.5
					c21.9,0.9,43.7-0.3,65.4-4.1c8.9-1.5,17.7-3.7,25.7-8.3c9.9-5.7,17.4-13.9,24.2-23c6.9-9.2,12.6-19.3,17.3-29.8
					c5.9-13.2,9.5-26.9,10.5-41.3c1.4-20.5-5.3-37.8-20.5-51.8c-9.1-8.4-19.6-14.8-30.3-20.9c-1.9-1.1-3-2.3-3.7-4.3
					c-1.4-4.2-2.9-8.5-5-12.4c-2.7-4.9-5.2-9.9-8.1-14.6c-2.5-4.1-5-8.4-8.8-11.6c-3.8-3.1-7.8-4.7-12.9-2.5
					c-6.3,2.6-10.2,7.5-13.3,13.1c-3.2,5.9-6,12.1-8.9,18.2c-2.7,5.8-2.6,5.8-8.9,5.5c-0.1,0-0.2,0-0.3,0c-7.3-1.3-14.6-1.3-22-1.6
					c-2-0.1-3.3-1-4.4-2.6c-6.7-10.3-15.7-18.6-24.1-27.4c-6.9-7.3-16.2-6.2-23.1-0.6c-5.4,4.4-9.4,10-12.8,15.9
					c-5,8.6-11,16.6-12,27.1c-0.2,2.3,2.7,2.6,2,4.7c0,0,0.2,0,0.3,0.1c0.6,0.8,1.5-1.7,2.4,0.2c0.2,0.5,1.6-1.2,2.4-2
					c1-1,1.9-2.3,2.7-3.5c4-5.5,7.1-11.5,10.6-17.3c3.3-5.5,6.7-11,11.5-15.4c3.4-3,5.8-2.9,9,0.5c3.8,4,7.4,8.3,11.3,12.3
					c3.7,3.9,7.4,7.8,10.1,12.4c2.8,4.8,7.2,7.3,12.7,7.6C199.8,144.2,204.9,144.5,209.9,144.8z M186.7,301.4
					c3.1-0.2,8.1-0.4,13.2-0.9c8.4-0.8,16.9-0.5,25.2-1.9c7-1.2,14-3,20.9-4.7c7.7-1.8,15.5-3.5,22.9-6.3
					c8.4-3.1,14.9-8.3,20.1-15.6c5.1-7.3,8.7-15.2,11-23.7c2-7.3,2.6-14.6,0.2-22c-3.5-11-16.6-17.9-27.5-14.2
					c-10.8,3.7-21.5,7.9-31.5,13.4c-3.3,1.8-6.5,3.8-10,5.3c-6.8,2.9-14,3.8-21.3,3.3c-0.9-0.1-2.3-0.2-1.8-1.7c1-3,0.2-6.1,0.6-9.2
					c0.2-1.7,0.8-2.8,1.9-4c3.4-3.8,4.6-7.7,0.5-12.1c-4-4.2-13.6-4.7-17.8-0.7c-0.7,0.7-1.3,1.5-1.6,2.5c-1.8,4.5-1,8.2,2.7,11.2
					c1.7,1.4,2.5,2.9,2.4,5.1c-0.1,1.4-0.2,2.8,0,4.2c0.2,1.9-0.7,2.2-2.3,1.9c-3.4-0.6-6.8-1.1-10.3-1.7
					c-6.4-1.2-12.8-2.7-18.9-5.1c-5.3-2.1-9.9-5.4-14.6-8.5c-2.7-1.8-5.8-2.8-8.3-5c-1.9-1.6-4.5-1.7-7.1-0.7
					c-4.3,1.6-8.4,3.7-12.2,6.1c-6.4,4.2-9.6,10.4-10.4,17.9c-0.5,4.6-0.2,9.1,0,13.7c0.3,6.9,2.6,13,7.2,18.2
					c2,2.2,3.7,4.6,5.7,6.9c4.2,4.8,7.8,10.2,12.8,14.4c4.1,3.4,8.1,6.9,13.2,8.6C162.1,299.9,173.3,301.4,186.7,301.4z
					 M185.9,184.1c-0.1-2.6,0.2-5.2-1-7.7c-1-2-2.1-4.1-4.6-4c-2.5,0-4.3,1.7-5.1,4c-1.8,4.5-2.2,9.3-0.9,14
					c0.6,2.2,2.2,3.5,4.6,3.6c2.5,0.2,4.7-0.1,6.1-2.6C186.1,188.9,185.7,186.5,185.9,184.1z"/>
				<path class="st2" d="M212.9,145.3l0.1,0c-1-0.6-2.1-0.6-3.1-0.5c-5.1-0.3-10.1-0.6-15.1-0.9c-5.5-0.3-9.9-2.8-12.7-7.6
					c-2.8-4.7-6.4-8.6-10.1-12.4c-3.9-4-7.5-8.2-11.3-12.3c-3.2-3.4-5.6-3.5-9-0.5c-4.9,4.3-8.2,9.9-11.5,15.4
					c-3.5,5.8-6.6,11.8-10.6,17.3c-0.9,1.2-1.7,2.5-2.7,3.5c-0.8,0.8-2.2,2.5-2.4,2c-0.9-1.9-1.7,0.5-2.4-0.2
					c-0.1-0.1-0.3-0.1-0.3-0.1c0.7-2.1-2.3-2.4-2-4.7c1-10.4,7-18.5,12-27.1c3.4-5.9,7.4-11.5,12.8-15.9c6.9-5.6,16.2-6.6,23.1,0.6
					c8.4,8.8,17.4,17.1,24.1,27.4c1.1,1.6,2.4,2.5,4.4,2.6c7.3,0.3,14.7,0.4,22,1.6c0.1,0,0.2,0,0.3,0c6.3,0.3,6.2,0.3,8.9-5.5
					c2.9-6.1,5.6-12.3,8.9-18.2c3.1-5.6,7-10.5,13.3-13.1c5.1-2.1,9.1-0.6,12.9,2.5c3.8,3.2,6.3,7.4,8.8,11.6
					c2.9,4.8,5.4,9.7,8.1,14.6c2.2,3.9,3.6,8.2,5,12.4c0.7,2,1.8,3.3,3.7,4.3c10.7,6.1,21.1,12.5,30.3,20.9
					c15.2,14,22,31.3,20.5,51.8c-1,14.4-4.7,28.1-10.5,41.3c-4.7,10.6-10.3,20.6-17.3,29.8c-6.8,9-14.3,17.2-24.2,23
					c-8,4.6-16.8,6.7-25.7,8.3c-21.6,3.7-43.4,5-65.4,4.1c-19.6-0.8-38.7-4.8-56.7-12.5c-15.8-6.8-30.3-15.6-42.5-27.9
					c-12.2-12.2-21.2-26.2-23.9-43.7c-1.8-11.6-1-22.9,2.6-34.1c1.9-5.9,4.3-11.6,7.6-16.8c6-9.5,13-18.2,21.4-25.8
					c3-2.7,6.5-4.9,9.7-7.3c1.6-1.2,3-0.3,4.4-0.7c0.7-0.3,0.8,0.6,0.9,1.2c0.1,0.5,0.2,0.6,0.4,0.3c0.4-0.4,0.7-0.8,1.2-0.3
					c0.4,0.4,0.1,0.9-0.1,1.4c-1.4,2.7-3.1,5.3-4.9,7.7c-6.9,8.9-14.3,17.6-20.8,26.8c-9.5,13.6-12.9,28.8-10.5,45.3
					c2.3,15.9,10.8,28.2,22,39c12.8,12.4,28.2,20.5,44.8,26.5c13.5,4.9,27.5,7.4,41.9,8.5c18.7,1.4,37.3,0.2,55.9-2.1
					c8.8-1.1,17.5-2.4,25.8-5.5c6-2.2,11.1-5.8,15.7-10.1c6.9-6.6,12.7-14.2,17.7-22.3c5-8.1,9.3-16.7,12.4-25.7
					c3.8-11,6.5-22.2,6.5-34c-0.1-16.6-7.2-29.6-19.8-40c-0.5-0.4-1.1-0.9-1.6-1.3c-6.5-5.7-14.1-9.9-21.4-14.4
					c-5.6-3.4-10.2-7.5-11.9-14.1c-1.3-4.9-3.8-9.4-6.3-13.7c-2.9-5-5.4-10.2-8.9-14.8c-2.9-3.7-4.4-3.6-7.2,0.3
					c-0.2,0.2-0.3,0.5-0.5,0.8c-5.6,8.4-9.8,17.5-13.3,26.9c-1.5,3.9-4.2,5.9-8.2,6.3c-1.6,0.2-3.2,0.1-4.8,0.1
					C219.7,145.4,216.3,144.6,212.9,145.3z M124.8,146.5c0.1,0,0.1,0.1,0.2,0.1c0-0.1,0.1-0.1,0.1-0.2c0-0.1-0.1-0.1-0.2-0.1
					C124.8,146.4,124.8,146.5,124.8,146.5z"/>
				<path class="st2" d="M186.7,301.4c-13.4,0-24.5-1.6-35.3-5.3c-5.1-1.7-9.1-5.2-13.2-8.6c-5-4.2-8.6-9.6-12.8-14.4
					c-2-2.2-3.7-4.6-5.7-6.9c-4.6-5.2-6.9-11.3-7.2-18.2c-0.2-4.6-0.5-9.2,0-13.7c0.8-7.5,4-13.7,10.4-17.9
					c3.8-2.5,7.9-4.5,12.2-6.1c2.6-1,5.2-0.9,7.1,0.7c2.5,2.2,5.6,3.2,8.3,5c4.7,3.1,9.3,6.4,14.6,8.5c6.1,2.4,12.5,3.9,18.9,5.1
					c3.4,0.6,6.8,1.1,10.3,1.7c1.6,0.3,2.5-0.1,2.3-1.9c-0.1-1.4,0-2.8,0-4.2c0.1-2.2-0.7-3.7-2.4-5.1c-3.7-3.1-4.5-6.7-2.7-11.2
					c0.4-0.9,0.9-1.8,1.6-2.5c4.2-4,13.8-3.5,17.8,0.7c4.1,4.3,2.9,8.2-0.5,12.1c-1.1,1.3-1.8,2.3-1.9,4c-0.3,3.1,0.5,6.2-0.6,9.2
					c-0.5,1.5,0.9,1.6,1.8,1.7c7.3,0.5,14.5-0.4,21.3-3.3c3.5-1.5,6.7-3.5,10-5.3c10.1-5.5,20.7-9.7,31.5-13.4
					c11-3.7,24,3.2,27.5,14.2c2.4,7.4,1.8,14.7-0.2,22c-2.3,8.5-5.9,16.4-11,23.7c-5.1,7.3-11.7,12.5-20.1,15.6
					c-7.5,2.8-15.2,4.5-22.9,6.3c-7,1.6-13.9,3.4-20.9,4.7c-8.3,1.4-16.8,1.1-25.2,1.9C194.8,301.1,189.7,301.3,186.7,301.4z
					 M186.8,289.6c6.2-0.5,12.5-1.1,18.9-1.5c9.6-0.5,19.2-0.8,28.6-3.5c3.8-1.1,7.8-1.7,11.5-3c1.1-0.4,2.3-0.8,1.2-2.3
					c-1.6-2.1-1.5-4.5-1.5-6.8c-0.1-8.3,0.2-16.7,0.9-25c0.3-3.1,0.6-6.3,1.7-9.3c0.3-0.7,1.1-1.6,0.4-2.2c-0.8-0.8-1.6,0.1-2.3,0.6
					c-5.5,3.3-11.2,6.1-17.4,7.6c-5.3,1.4-5.3,1.3-5.4,6.6c-0.2,7.4-0.9,14.9,0,22.3c0.3,2.5,0.7,5.1,0,7.7c-0.9,3.3-3.9,5-7.2,4.4
					c-3.4-0.6-3.7-3.3-3.9-5.8c-1.1-10.4-2-20.8,0.5-31.2c0.4-1.5-0.1-2.1-1.5-2.1c-8,0.1-15.5-2.3-23.1-4.1
					c-1.5-0.4-2.3-0.3-2.3,1.7c0,3.6-0.3,7.2-1.4,10.6c-2.9,8.8-4.4,17.9-5.2,27.1c-0.2,2.5-1.4,5.9,0,7.4
					C180.7,290.4,184.1,289.4,186.8,289.6z M164.9,287.6c1.4,0.1,2-0.3,2.1-1.8c0.2-6.9,0.6-13.8,2.3-20.6
					c1.6-6.2,2.4-12.6,5.3-18.5c0.9-1.9,3-4.3,2.2-5.8c-0.8-1.5-3.9-1.2-6-1.9c-4.5-1.5-9.4-1.9-13.2-5c-1.6-1.3-1.9,0-2.2,1.4
					c-0.7,3.9-1.9,7.7-3,11.5c-2.3,7.6-4.7,15.1-5.2,23.1c-0.1,1.7,0,3.8-1.6,4.9c-1.8,1.3-0.9,2.2,0,3.3
					C150.7,284,157.9,285.6,164.9,287.6z M139.4,222.1c-3,0.5-5.3,1.5-7.3,2.7c-3.5,2.1-6.7,4.7-7.4,9.1c-1,6.1-0.8,12.2,0.5,18.3
					c1,4.6,4.7,7.5,7.5,10.9c0.7,0.9,1.3,2.6,2.5,2.3c1.3-0.3,0.5-2.1,0.8-3.1c0.1-0.5,0.2-1,0.3-1.5c2.7-9.4,4.7-19,7.9-28.3
					c0.6-1.6,2.5-3,1.6-4.8c-0.8-1.7-2.7-2.6-4.2-3.7C140.8,223.3,140.2,221.9,139.4,222.1z M257.3,268.1c0,2.9,0.2,5.8-0.1,8.6
					c-0.2,2.1,0.6,2.2,2.1,1.8c2.3-0.6,4.5-1.5,6.6-2.6c1-0.5,1.4-1.1,0.8-2.4c-0.8-1.7-0.7-3.6-0.5-5.6c0.7-8.9,1.4-17.8,2.1-26.7
					c0.4-4.6-0.8-9.3,0.7-13.9c0.4-1.2-0.6-1.1-1.2-0.9c-3.3,1.2-6.5,2.5-9.7,3.8c-1,0.4-1.5,1-1,2.3c1.7,4.3,2,8.9,1.6,13.5
					C258.1,253.5,257.3,260.8,257.3,268.1z M280.6,238.3c-0.1,1.6-0.1,3.2-0.3,4.8c-0.6,6.7-1.3,13.4-1.9,20.1
					c-0.1,0.7-0.6,1.8,0.4,2.1c1,0.3,1.2-0.9,1.5-1.5c4.3-6.8,7.1-14.2,8.8-22c0.9-3.8,1-7.7-0.5-11.4c-1.7-4.4-6.7-7.5-11.1-6.9
					c-1.6,0.2-1.9,0.6-0.9,2C279.7,229.2,280.5,233.6,280.6,238.3z"/>
				<path class="st3" d="M212.9,145.3c3.4-0.6,6.7,0.2,10.1,0c1.6-0.1,3.2,0,4.8-0.1c4-0.5,6.7-2.4,8.2-6.3
					c3.5-9.4,7.7-18.5,13.3-26.9c0.2-0.2,0.3-0.5,0.5-0.8c2.8-3.9,4.3-4,7.2-0.3c3.5,4.6,6,9.8,8.9,14.8c2.6,4.4,5,8.8,6.3,13.7
					c1.8,6.6,6.4,10.7,11.9,14.1c7.3,4.5,14.9,8.7,21.4,14.4c-2,6.2-5.9,11.1-10.4,15.6c-3.4,3.4-6.7,7-10.7,9.8
					c-7.7,5.3-15.9,9.5-24.9,12c-5,1.4-10,2.1-15.2,2.1c-8.9-0.1-16.2-3.3-22.7-9.2c-5.1-4.8-9-10.4-12.2-16.5
					c-1.3-2.4-1.8-5.1-2.1-7.9c-0.7-6.7,0.6-13.2,1.5-19.8c0.3-2.3,0.5-4.8,1.8-7C211.2,146,211.9,145.6,212.9,145.3z M233.7,185.8
					c0.2-3.3,0.1-6.5-1.9-9.4c-2.4-3.5-4.3-3.7-7.4-0.7c-1.3,1.2-2,2.7-2.4,4.4c-0.6,3-0.9,6.1-0.9,9.2c0,1.6,0.5,2.9,1.5,4.1
					c2.9,3.8,8.2,3.2,10.3-1.1C233.9,190.1,233.5,187.9,233.7,185.8z"/>
				<path class="st2" d="M185.9,184.1c-0.2,2.4,0.2,4.9-1.1,7.2c-1.4,2.6-3.6,2.8-6.1,2.6c-2.4-0.2-4-1.4-4.6-3.6
					c-1.2-4.7-0.8-9.5,0.9-14c0.9-2.2,2.6-3.9,5.1-4c2.6,0,3.7,2,4.6,4C186,178.8,185.7,181.4,185.9,184.1z"/>
				<path class="st3" d="M209.9,144.8c1.1-0.1,2.2-0.1,3.1,0.5C211.9,145.8,210.9,145.6,209.9,144.8z"/>
				<path class="st1" d="M124.8,146.5c0-0.1,0.1-0.1,0.1-0.2c0.1,0,0.2,0.1,0.2,0.1c0,0.1,0,0.1-0.1,0.2
					C124.9,146.6,124.8,146.6,124.8,146.5z"/>
				<path class="st1" d="M186.8,289.6c-2.7-0.1-6.1,0.9-7.6-0.6c-1.5-1.5-0.3-4.9,0-7.4c0.8-9.2,2.2-18.3,5.2-27.1
					c1.1-3.4,1.4-7,1.4-10.6c0-2,0.8-2.1,2.3-1.7c7.6,1.8,15.2,4.1,23.1,4.1c1.4,0,1.9,0.6,1.5,2.1c-2.5,10.3-1.6,20.8-0.5,31.2
					c0.2,2.5,0.5,5.1,3.9,5.8c3.3,0.6,6.3-1.2,7.2-4.4c0.8-2.6,0.4-5.1,0-7.7c-1-7.4-0.2-14.9,0-22.3c0.1-5.3,0.1-5.3,5.4-6.6
					c6.2-1.6,11.9-4.4,17.4-7.6c0.7-0.4,1.5-1.4,2.3-0.6c0.6,0.6-0.2,1.5-0.4,2.2c-1.1,3-1.4,6.2-1.7,9.3c-0.7,8.3-1,16.7-0.9,25
					c0,2.3,0,4.8,1.5,6.8c1.1,1.5-0.2,1.9-1.2,2.3c-3.8,1.3-7.7,1.9-11.5,3c-9.4,2.7-19,3-28.6,3.5
					C199.3,288.4,193,289.1,186.8,289.6z"/>
				<path class="st1" d="M164.9,287.6c-7-2-14.2-3.6-19.3-9.5c-0.9-1.1-1.9-2,0-3.3c1.6-1.1,1.5-3.3,1.6-4.9c0.5-8,3-15.5,5.2-23.1
					c1.1-3.8,2.3-7.6,3-11.5c0.2-1.3,0.6-2.6,2.2-1.4c3.9,3.1,8.8,3.5,13.2,5c2,0.7,5.2,0.4,6,1.9c0.8,1.5-1.2,3.9-2.2,5.8
					c-2.9,5.9-3.7,12.3-5.3,18.5c-1.7,6.8-2.2,13.7-2.3,20.6C167,287.3,166.3,287.7,164.9,287.6z"/>
				<path class="st1" d="M139.4,222.1c0.9-0.3,1.4,1.2,2.3,1.8c1.5,1.1,3.4,2,4.2,3.7c0.8,1.8-1.1,3.2-1.6,4.8
					c-3.2,9.3-5.3,18.9-7.9,28.3c-0.1,0.5-0.1,1-0.3,1.5c-0.3,1.1,0.5,2.8-0.8,3.1c-1.2,0.3-1.8-1.4-2.5-2.3
					c-2.8-3.4-6.5-6.3-7.5-10.9c-1.3-6.1-1.5-12.1-0.5-18.3c0.8-4.5,3.9-7,7.4-9.1C134.1,223.6,136.3,222.6,139.4,222.1z"/>
				<path class="st1" d="M257.3,268.1c0-7.3,0.9-14.6,1.5-21.9c0.4-4.6,0.1-9.1-1.6-13.5c-0.5-1.3,0-1.9,1-2.3
					c3.2-1.3,6.4-2.6,9.7-3.8c0.6-0.2,1.6-0.4,1.2,0.9c-1.6,4.6-0.3,9.3-0.7,13.9c-0.8,8.9-1.4,17.8-2.1,26.7
					c-0.2,1.9-0.2,3.8,0.5,5.6c0.6,1.3,0.2,1.9-0.8,2.4c-2.1,1.1-4.3,2-6.6,2.6c-1.5,0.4-2.3,0.2-2.1-1.8
					C257.5,273.9,257.3,271,257.3,268.1z"/>
				<path class="st1" d="M280.6,238.3c0-4.7-0.9-9.1-3.7-12.9c-1-1.4-0.7-1.8,0.9-2c4.3-0.6,9.3,2.5,11.1,6.9
					c1.5,3.8,1.3,7.6,0.5,11.4c-1.7,7.8-4.5,15.2-8.8,22c-0.4,0.6-0.6,1.8-1.5,1.5c-1.1-0.3-0.5-1.3-0.4-2.1
					c0.6-6.7,1.3-13.4,1.9-20.1C280.5,241.5,280.5,239.9,280.6,238.3z"/>
				<path class="st2" d="M233.7,185.8c-0.2,2.1,0.2,4.3-0.8,6.4c-2,4.3-7.4,4.9-10.3,1.1c-0.9-1.2-1.4-2.6-1.5-4.1
					c-0.1-3.1,0.2-6.1,0.9-9.2c0.3-1.7,1.1-3.1,2.4-4.4c3.1-3,5-2.8,7.4,0.7C233.8,179.2,234,182.4,233.7,185.8z"/>
			</g>
		</g>
	</g>
</g>
</svg>
