<svg id="图层_1" data-name="图层 1" xmlns="http://www.w3.org/2000/svg" viewBox="0 0 573.87 573.87"><title>QQ-square-fill</title><path d="M902.79,79.85H466.6a68.84,68.84,0,0,0-68.84,68.84V584.88a68.85,68.85,0,0,0,68.84,68.85H902.79a68.85,68.85,0,0,0,68.84-68.85V148.69A68.84,68.84,0,0,0,902.79,79.85ZM867.25,509.79c-10,1.21-39-45.83-39-45.83,0,27.22-14.09,62.78-44.43,88.52,14.69,4.52,47.73,16.69,39.9,29.91-6.34,10.69-109.2,6.87-138.94,3.48-29.74,3.3-132.6,7.21-138.94-3.48-7.92-13.22,25.13-25.39,39.82-29.91C555.2,526.83,541.2,491.27,541.2,464c0,0-29,47-39,45.83-4.7-.61-10.79-25.74,8.17-86.69,8.95-28.7,19.13-52.61,34.95-92-2.69-101.64,39.39-186.94,139.47-186.94,99,0,142,83.55,139.47,186.94,15.73,39.3,26,63.29,34.95,92C878,484.05,871.86,509.26,867.25,509.79Z" transform="translate(-397.76 -79.85)"/></svg>