<?xml version="1.0" encoding="utf-8"?>
<!-- Generator: Adobe Illustrator 24.0.2, SVG Export Plug-In . SVG Version: 6.00 Build 0)  -->
<svg version="1.1" id="图层_1" xmlns="http://www.w3.org/2000/svg" xmlns:xlink="http://www.w3.org/1999/xlink" x="0px" y="0px"
	 viewBox="0 0 576 576" style="enable-background:new 0 0 576 576;" xml:space="preserve">
<path d="M389.8,195.4c6.7,0,13.2,0.3,19.7,1.2C392.1,114.5,304,53.4,203.9,53.4C91.6,53.4,0,129.7,0,226.6
	c0,55.9,30.7,102.1,81.6,137.8l-20.2,61.4l71.2-35.7c25.6,5,45.9,10.2,71.4,10.2c6.5,0,12.7-0.3,19.2-0.8
	c-4.2-13.5-6.5-27.9-6.5-42.7C216.6,267.8,293,195.4,389.8,195.4L389.8,195.4z M280.4,140c15.2,0,25.3,10.2,25.3,25.6
	c0,15.2-10.2,25.3-25.3,25.3c-15.5,0-30.7-10.2-30.7-25.3C249.8,150.2,265,140,280.4,140z M137.5,190.9c-15.2,0-30.7-10.2-30.7-25.3
	c0-15.5,15.5-25.6,30.7-25.6c15.5,0,25.6,10.2,25.6,25.6C163.1,180.9,153,190.9,137.5,190.9z M576,354.4c0-81.6-81.6-148-173.2-148
	c-97.1,0-173.2,66.4-173.2,148s76.2,148,173.2,148c20.2,0,40.7-5.3,61.4-10.4l55.9,30.7l-15.5-50.9C545.6,441,576,400.3,576,354.4z
	 M346.5,328.7c-10.2,0-20.2-10.2-20.2-20.5c0-10.2,10.2-20.2,20.2-20.2c15.5,0,25.6,10.2,25.6,20.2
	C372.1,318.7,361.9,328.7,346.5,328.7z M458.7,328.7c-10.2,0-20.2-10.2-20.2-20.5c0-10.2,10.2-20.2,20.2-20.2
	c15.2,0,25.6,10.2,25.6,20.2C484.4,318.7,473.9,328.7,458.7,328.7z"/>
</svg>
